<?xml version="1.0" encoding="UTF-8" standalone="no"?>
<svg
   xmlns:dc="http://purl.org/dc/elements/1.1/"
   xmlns:cc="http://creativecommons.org/ns#"
   xmlns:rdf="http://www.w3.org/1999/02/22-rdf-syntax-ns#"
   xmlns:svg="http://www.w3.org/2000/svg"
   xmlns="http://www.w3.org/2000/svg"
   xmlns:sodipodi="http://sodipodi.sourceforge.net/DTD/sodipodi-0.dtd"
   xmlns:inkscape="http://www.inkscape.org/namespaces/inkscape"
   width="32"
   height="32"
   version="1.1"
   id="svg34"
   sodipodi:docname="element.svg"
   inkscape:version="1.0.2 (e86c870879, 2021-01-15)">
  <metadata
     id="metadata40">
    <rdf:RDF>
      <cc:Work
         rdf:about="">
        <dc:format>image/svg+xml</dc:format>
        <dc:type
           rdf:resource="http://purl.org/dc/dcmitype/StillImage" />
        <dc:title />
      </cc:Work>
    </rdf:RDF>
  </metadata>
  <defs
     id="defs38" />
  <sodipodi:namedview
     pagecolor="#ffffff"
     bordercolor="#666666"
     borderopacity="1"
     objecttolerance="10"
     gridtolerance="10"
     guidetolerance="10"
     inkscape:pageopacity="0"
     inkscape:pageshadow="2"
     inkscape:window-width="960"
     inkscape:window-height="1056"
     id="namedview36"
     showgrid="false"
     showguides="false"
     inkscape:zoom="10.451922"
     inkscape:cx="17.57736"
     inkscape:cy="0.17867717"
     inkscape:window-x="2880"
     inkscape:window-y="1056"
     inkscape:window-maximized="0"
     inkscape:current-layer="svg34"
     inkscape:document-rotation="0" />
  <path
     style="fill:#ffffff;fill-opacity:0.89999998"
     d="M 12.664062 1.0039062 C 12.223192 0.98584475 11.773662 1.0326347 11.326172 1.1523438 C 8.9400067 1.7906764 7.5130056 4.2584589 8.1523438 6.640625 C 8.4002738 7.5644117 8.9257752 8.3464011 9.609375 8.9160156 L 10.052734 9.2851562 L 10.503906 8.9277344 C 11.268676 8.3207713 12.135104 7.8606257 13.103516 7.6015625 C 14.048889 7.3486618 15.006401 7.310971 15.951172 7.4433594 L 16.523438 7.5214844 L 16.716797 6.9785156 C 17.010078 6.1541156 17.066274 5.2314377 16.822266 4.3222656 C 16.342763 2.5356407 14.833439 1.2860598 13.101562 1.0429688 C 12.95724 1.0227115 12.811019 1.009926 12.664062 1.0039062 z M 20.802734 4.0214844 C 20.480109 4.0081264 20.151391 4.0431938 19.824219 4.1308594 C 18.278801 4.5449536 17.282164 6.0069315 17.400391 7.5527344 L 17.433594 8.0097656 L 17.863281 8.1738281 C 19.007007 8.6102546 20.082217 9.3053509 21.007812 10.224609 L 21.328125 10.542969 L 21.755859 10.392578 C 23.355632 9.832198 24.295696 8.1179445 23.849609 6.453125 C 23.469686 5.0352254 22.200776 4.0793689 20.802734 4.0214844 z M 6.0253906 8.0253906 C 5.8295474 8.0408297 5.6319097 8.0743402 5.4355469 8.1269531 C 3.6906312 8.5945021 2.6439389 10.406071 3.1113281 12.150391 C 3.5672378 13.851869 5.3030538 14.880841 7.0058594 14.498047 L 7.4316406 14.402344 L 7.5449219 13.980469 C 7.8774256 12.751226 8.4387855 11.63523 9.1816406 10.699219 L 9.4550781 10.353516 L 9.2753906 9.9511719 C 8.7072357 8.6907028 7.3962965 7.917298 6.0253906 8.0253906 z M 25.878906 19.443359 C 25.680711 19.433959 25.480792 19.44307 25.279297 19.470703 L 24.791016 19.537109 L 24.673828 20.013672 C 24.347176 21.349618 23.762573 22.560918 22.962891 23.560547 L 22.650391 23.951172 L 22.904297 24.382812 C 23.635028 25.617624 25.122574 26.27764 26.574219 25.888672 C 28.318539 25.421283 29.36609 23.610531 28.898438 21.865234 C 28.520653 20.45532 27.266268 19.50946 25.878906 19.443359 z M 9.5996094 23.476562 L 9.1542969 23.642578 C 7.583871 24.221137 6.6695622 25.91576 7.1113281 27.564453 C 7.5787177 29.308773 9.3918028 30.35622 11.136719 29.888672 C 12.611941 29.493387 13.579932 28.140093 13.5625 26.675781 L 13.556641 26.195312 L 13.109375 26.015625 C 11.946484 25.547135 10.858969 24.798112 9.9277344 23.822266 L 9.5996094 23.476562 z M 19.701172 27.189453 L 19.173828 27.378906 C 18.968813 27.452006 18.774746 27.522057 18.580078 27.574219 C 18.28255 27.653939 17.983433 27.715081 17.683594 27.757812 L 17.101562 27.839844 L 19 29.699219 L 19.701172 27.189453 z"
     id="path4" />
  <g
     style="fill:#ffffff"
     transform="matrix(0.56778794,-0.15011745,0.15213833,0.56024598,-4.243758,4.0846766)"
     id="g14">
    <path
       style="fill:#ffffff"
       transform="rotate(15,26.653467,29.784442)"
       d="m 26.080078,11.222656 c -1.129182,0.03488 -2.266168,0.199609 -3.394531,0.501953 -9.026904,2.418752 -14.0226678,12.778721 -11.332031,22.820313 1.300302,4.852795 4.228443,9.067138 8.193359,11.726562 3.96493,2.659518 8.668809,3.5361 13.03125,2.367188 4.362441,-1.168913 7.999545,-4.278779 10.103516,-8.564453 2.104005,-4.285587 2.532725,-9.401112 1.232421,-14.253907 C 41.559756,17.033919 33.984355,10.978519 26.080078,11.222656 Z"
       id="path12" />
  </g>
  <g
     style="fill:none;stroke:#282a36;stroke-width:1.50003718;fill-opacity:1;stroke-opacity:1;stroke-miterlimit:4;stroke-dasharray:none"
     transform="matrix(0.60540694,-0.15499567,0.1622183,0.57845175,-5.1748352,3.6052842)"
     id="g28">
    <path
       style="fill:none;stroke:#282a36;stroke-width:1.50003718;fill-opacity:1;stroke-opacity:1;stroke-miterlimit:4;stroke-dasharray:none"
       d="m 25.875,33.75 -1.542,-4.625 3.164,-2.587 3.615,2.626 -1.487,4.669 z"
       id="path16" />
    <path
       style="fill:none;stroke:#282a36;stroke-width:1.50003718;fill-opacity:1;stroke-opacity:1;stroke-miterlimit:4;stroke-dasharray:none"
       d="m 27.501,41.551 c -3.968,-0.16 -5.543,-2.009 -5.543,-2.009 l 3.57,-4.163 4.465,0.168 3.132,4.12 c 0,0 -2.89,1.994 -5.624,1.884 z"
       id="path18" />
    <path
       style="fill:none;stroke:#282a36;stroke-width:1.50003718;fill-opacity:1;stroke-opacity:1;stroke-miterlimit:4;stroke-dasharray:none"
       d="m 18.453,33.843 c -0.849,-2.968 0.172,-6.884 0.172,-6.884 l 4,2.167 1.493,4.629 -3.582,4.233 c 0,-10e-4 -1.465,-1.99 -2.083,-4.145 z"
       id="path20" />
    <path
       style="fill:none;stroke:#282a36;stroke-width:1.50003718;fill-opacity:1;stroke-opacity:1;stroke-miterlimit:4;stroke-dasharray:none"
       d="m 19.458,25.125 c 0,0 0.5,-1.958 3.039,-3.822 2.237,-1.643 4.465,-1.72 4.465,-1.72 l -0.037,4.981 -3.521,2.75 z"
       id="path22" />
    <path
       style="fill:none;stroke:#282a36;stroke-width:1.50003718;fill-opacity:1;stroke-opacity:1;stroke-miterlimit:4;stroke-dasharray:none"
       d="M 32.084,27.834 28.625,24.959 29,19.75 c 0,0 1.834,-0.042 3.959,1.667 2.228,1.791 3.362,4.983 3.362,4.983 z"
       id="path24" />
    <path
       style="fill:none;stroke:#282a36;stroke-width:1.50003718;fill-opacity:1;stroke-opacity:1;stroke-miterlimit:4;stroke-dasharray:none"
       d="m 31.292,34.042 1.313,-4.464 4.187,-1.536 c 0,0 0.677,2.663 -0.042,5.667 -0.54,2.256 -2.084,4.361 -2.084,4.361 z"
       id="path26" />
  </g>
</svg>
