<?xml version="1.0" encoding="UTF-8" standalone="no"?>
<svg
   xmlns:dc="http://purl.org/dc/elements/1.1/"
   xmlns:cc="http://creativecommons.org/ns#"
   xmlns:rdf="http://www.w3.org/1999/02/22-rdf-syntax-ns#"
   xmlns:svg="http://www.w3.org/2000/svg"
   xmlns="http://www.w3.org/2000/svg"
   xmlns:sodipodi="http://sodipodi.sourceforge.net/DTD/sodipodi-0.dtd"
   xmlns:inkscape="http://www.inkscape.org/namespaces/inkscape"
   width="1920"
   height="1080"
   viewBox="0 0 507.99999 285.75001"
   version="1.1"
   id="svg8"
   inkscape:version="1.0.2 (e86c870879, 2021-01-15)"
   sodipodi:docname="wallpaper-emacs.svg"
   inkscape:export-filename="/etc/nixos/users/profiles/gnome-session/wallpaper-emacs.png"
   inkscape:export-xdpi="192"
   inkscape:export-ydpi="192">
  <defs
     id="defs2">
    <rect
       x="202.48595"
       y="240.60639"
       width="125.74784"
       height="29.272171"
       id="rect1046" />
    <rect
       x="-5125.4512"
       y="1681.2927"
       width="1080.0458"
       height="32.934991"
       id="rect7956" />
    <rect
       x="-5125.4512"
       y="1681.2927"
       width="1625.9453"
       height="110.64851"
       id="rect12686" />
  </defs>
  <sodipodi:namedview
     id="base"
     pagecolor="#ffffff"
     bordercolor="#666666"
     borderopacity="1.0"
     inkscape:pageopacity="0.0"
     inkscape:pageshadow="2"
     inkscape:zoom="0.45866591"
     inkscape:cx="885.11327"
     inkscape:cy="884.75281"
     inkscape:document-units="mm"
     inkscape:current-layer="layer1"
     inkscape:document-rotation="0"
     showgrid="false"
     units="px"
     inkscape:window-width="1920"
     inkscape:window-height="1080"
     inkscape:window-x="0"
     inkscape:window-y="1080"
     inkscape:window-maximized="0" />
  <metadata
     id="metadata5">
    <rdf:RDF>
      <cc:Work
         rdf:about="">
        <dc:format>image/svg+xml</dc:format>
        <dc:type
           rdf:resource="http://purl.org/dc/dcmitype/StillImage" />
        <dc:title />
      </cc:Work>
    </rdf:RDF>
  </metadata>
  <g
     inkscape:label="Layer 1"
     inkscape:groupmode="layer"
     id="layer1">
    <rect
       style="fill:#282a36;fill-opacity:1;stroke:#000000;stroke-width:0.373618;stop-color:#000000"
       id="rect7440"
       width="507.62637"
       height="285.3764"
       x="0.186809"
       y="0.186809"
       inkscape:export-xdpi="96"
       inkscape:export-ydpi="96" />
    <path
       d="m 306.85594,79.131044 c -26.93103,5.01721 -47.26131,39.609556 -49.37355,43.570506 v 24.0298 c 1.05612,2.9047 5.54462,15.05163 7.92089,19.54071 2.90432,5.01721 8.97701,10.82661 16.8979,6.07346 5.01656,-3.16876 10.56118,-8.45003 13.99357,-12.14693 3.16835,-3.43282 5.54462,-7.65784 6.33671,-12.14693 2.6403,-15.57975 -14.2576,-19.80477 -14.2576,-19.80477 0,0 12.67342,2.64063 14.78566,-5.01721 L 316.361,91.542038 c 0,0 0,-0.264064 0.26403,-0.264064 2.6403,-6.601593 -2.90432,-13.467248 -9.76909,-12.14693 z"
       id="路径"
       fill="#ffd15c"
       style="fill:#bd93f9;fill-opacity:1;fill-rule:nonzero;stroke:none;stroke-width:0.161585" />
    <path
       style="fill:#f8f8f2;fill-opacity:1;stroke-width:1.01745"
       d="m 289.20518,151.33203 c 0,0 -2.18339,1.02711 -5.08977,1.38953 -1.177,0.14678 -5.65525,0.65978 -9.08886,0.64635 0,0 -4.18182,0.004 -6.49015,-0.32317 -2.41536,-0.3431 -3.78361,-0.78098 -4.54524,-1.6548 -0.0199,-0.20835 -0.36758,-0.8875 0.5713,-1.54244 2.4003,-1.67443 5.50324,-2.13272 11.53048,-3.56424 6.66494,-1.67568 8.7589,-3.28038 9.75414,-4.44146 0.9434,-1.16386 -0.27934,-3.58093 -5.64986,-4.76664 -2.71916,-0.66171 -12.28378,-1.00494 -12.28378,-1.00494 2.90557,-2.30671 7.79755,-6.21499 8.91245,-7.09323 0.97787,-0.77029 2.55373,-1.95238 2.72303,-3.00873 0.22849,-1.02829 -1.39008,-1.52342 -2.24709,-1.58053 -2.76108,-0.19042 -6.53166,0.53993 -9.88305,1.2064 -1.68465,0.33503 -1.98042,0.28566 -1.98042,0.28566 -2.39929,0.11425 -4.74233,-1.54918 -4.64709,-4.19613 0.0191,-2.68498 3.18037,-4.83806 6.15145,-4.93207 3.00563,-0.013 10.12781,-0.013 10.12781,-0.013 -8.03603,1.65671 -9.78494,2.49229 -10.20412,3.45965 -0.24825,0.5716 0.41308,1.13952 2.627,1.02862 2.41129,-0.12086 7.3519,-0.70467 7.3519,-0.70467 4.70254,-0.72359 7.57166,-1.40913 9.00013,0.45703 0.93306,1.21919 -0.13332,2.70412 -0.55224,3.57991 -1.86616,3.25637 -4.68624,5.49044 -6.7339,7.0648 -0.7705,0.59241 -3.12289,1.90425 -3.12289,1.90425 7.31223,-1.99946 13.54602,-0.87596 17.24028,1.06639 4.24654,2.51365 3.5201,6.75529 -3.21811,10.72101 -3.97996,2.34231 -6.36829,3.46738 -12.88449,4.26748 -3.80883,0.60732 -4.58005,0.85582 -4.55115,1.17285 0.0408,0.44636 4.71191,0.6155 5.93973,0.7002 3.12391,0.21542 11.20307,-0.12409 11.24337,-0.12409 z"
       id="path10-3-7" />
    <g
       transform="matrix(0.16158486,0,0,0.16158486,257.07261,90.899525)"
       fill="#f7b64c"
       id="g36"
       style="fill:#ff79c6;fill-opacity:1;fill-rule:nonzero;stroke:none;stroke-width:1">
      <g
         transform="translate(85.7,224.78947)"
         id="g12"
         style="fill:#ff79c6;fill-opacity:1">
        <path
           d="M 161.936,57.002632 C 96.576,25.952632 29.582,34.123684 27.948,34.123684 v 4.902632 c 0,0 70.262,-8.171053 135.622,24.513158 0,-1.634211 0,-3.268421 -1.634,-6.536842 z"
           id="path8"
           style="fill:#ff79c6;fill-opacity:1" />
        <path
           d="M 3.438,22.68421 0.17,19.415789 C 31.216,-6.7315789 93.308,1.4394737 96.576,3.0736842 v 4.9026316 c 0,0 -63.726,-9.8052632 -93.138,14.7078942 z"
           id="path10"
           style="fill:#ff79c6;fill-opacity:1" />
      </g>
      <path
         d="M 262.342,325.91579 C 213.322,291.59737 144.694,286.69474 144.694,286.69474 v 4.90263 c 0,0 70.262,4.90263 117.648,40.85526 0,-1.63421 0,-3.26842 0,-6.53684 z"
         id="path14"
         style="fill:#ff79c6;fill-opacity:1" />
      <path
         d="m 115.282,265.45 c 1.634,3.26842 8.17,17.97632 31.046,29.41579 22.876,11.43947 24.51,34.31842 24.51,35.95263 v 1.63421 h 1.634 c 0,0 42.484,4.90263 73.53,53.92895 1.634,-1.63421 3.268,-1.63421 3.268,-3.26842 -27.778,-44.12369 -65.36,-52.29474 -75.164,-53.92895 -1.634,-6.53684 -4.902,-26.14737 -27.778,-37.58684 -24.51,-11.43948 -29.412,-27.78158 -29.412,-27.78158 v -1.63421 l -26.144,-14.7079 -63.726,-1.63421 -24.51,14.7079 3.268,4.90263 22.876,-14.7079 60.458,1.63422 z"
         id="path16"
         style="fill:#ff79c6;fill-opacity:1" />
      <polygon
         points="172.472,329.18421 154.498,338.98947 102.21,321.01316 0.902,260.54737 0.902,265.45 98.942,324.28158 154.498,343.89211 175.74,332.45263 "
         id="polygon18"
         style="fill:#ff79c6;fill-opacity:1" />
      <path
         d="M 218.224,425.60263 C 192.08,379.84474 156.132,338.98947 156.132,338.98947 l -3.268,3.26843 c 0,0 37.582,42.48947 63.726,89.88157 0,-1.63421 0,-3.26842 1.634,-6.53684 z"
         id="path20"
         style="fill:#ff79c6;fill-opacity:1" />
      <path
         d="M 174.106,477.89737 C 161.034,409.26053 105.478,324.28158 102.21,321.01316 l -4.902,3.26842 c 0,1.63421 60.458,89.88158 71.896,158.51842 1.634,-1.63421 3.268,-3.26842 4.902,-4.90263 z"
         id="path22"
         style="fill:#ff79c6;fill-opacity:1" />
      <path
         d="m 12.34,270.35263 c 0,1.63421 -1.634,114.39474 58.824,220.61842 3.268,3.26842 8.17,6.53685 11.438,9.80527 -65.36,-107.8579 -65.36,-228.78948 -65.36,-230.42369 z"
         id="path24"
         style="fill:#ff79c6;fill-opacity:1" />
      <path
         d="M 146.328,499.14211 C 74.432,417.43158 17.242,271.98684 17.242,270.35263 l -4.902,1.63421 c 0,1.63421 57.19,147.07895 130.72,230.42369 0,-1.63421 1.634,-1.63421 3.268,-3.26842 z"
         id="path26"
         style="fill:#ff79c6;fill-opacity:1" />
      <path
         d="M 152.864,103.66316 108.746,147.78684 0.902,221.32632 v 6.53684 l 111.112,-75.17369 45.752,-44.12368 v 0 0 c 0,0 14.706,-62.100001 176.472,-53.928948 1.634,-1.63421 1.634,-3.268421 3.268,-4.902631 C 177.374,38.294737 156.132,95.492105 152.864,103.66316 Z"
         id="path28"
         style="fill:#ff79c6;fill-opacity:1" />
      <path
         d="M 306.46,97.126316 C 226.394,85.686842 156.132,103.66316 154.498,103.66316 l 1.634,4.90263 c 0,0 70.262,-16.342106 147.06,-6.53684 1.634,-1.63421 3.268,-3.268424 3.268,-4.902634 z"
         id="path30"
         style="fill:#ff79c6;fill-opacity:1" />
      <path
         d="M 281.95,154.32368 C 201.884,141.25 110.38,147.78684 108.746,147.78684 v 4.90263 c 1.634,0 93.138,-6.53684 171.57,6.53685 1.634,-1.63422 1.634,-3.26843 1.634,-4.90264 z"
         id="path32"
         style="fill:#ff79c6;fill-opacity:1" />
      <path
         d="m 357.114,5.6105263 c 0,-1.6342105 0,-3.268421 1.634,-4.90263156 C 223.126,-4.1947368 156.132,56.271053 156.132,57.905263 c 0,0 -6.536,3.268421 -4.902,4.902632 0,1.63421 6.536,0 6.536,0 11.438,0 21.242,3.268421 31.046,11.439473 l 3.268,-3.268421 C 182.276,64.442105 174.106,59.539474 164.302,59.539474 180.642,43.197368 246.002,2.3421053 357.114,5.6105263 Z"
         id="path34"
         style="fill:#ff79c6;fill-opacity:1" />
    </g>
    <path
       d="m 200.71601,79.131044 c 26.93103,5.01721 47.26131,39.609556 49.37355,43.570506 v 24.0298 c -1.05612,2.9047 -5.54462,15.05163 -7.92089,19.54071 -2.90433,5.01721 -8.97701,10.82661 -16.8979,6.07346 -5.01656,-3.16876 -10.56119,-8.45003 -13.99357,-12.14693 -3.16836,-3.43282 -5.54463,-7.65784 -6.33671,-12.14693 -2.6403,-15.57975 14.2576,-19.80477 14.2576,-19.80477 0,0 -12.67343,2.64063 -14.78566,-5.01721 L 191.21094,91.542038 c 0,0 0,-0.264064 -0.26403,-0.264064 -2.64029,-6.601593 2.90433,-13.467248 9.7691,-12.14693 z"
       id="path175"
       fill="#ffd15c"
       style="fill:#bd93f9;fill-opacity:1;fill-rule:nonzero;stroke:none;stroke-width:0.161585" />
    <path
       style="fill:#f8f8f2;fill-opacity:1;stroke-width:1.01745"
       d="m 218.36677,150.53984 c 0,0 2.18339,1.0271 5.08977,1.38953 1.177,0.14678 5.65525,0.65978 9.08885,0.64635 0,0 4.18183,0.004 6.49016,-0.32317 2.41536,-0.3431 3.7836,-0.78098 4.54524,-1.6548 0.0199,-0.20835 0.36757,-0.88751 -0.5713,-1.54244 -2.40031,-1.67443 -5.50325,-2.13273 -11.53048,-3.56424 -6.66494,-1.67568 -8.75891,-3.28039 -9.75415,-4.44146 -0.94339,-1.16386 0.27934,-3.58093 5.64986,-4.76664 2.71917,-0.66172 12.28378,-1.00494 12.28378,-1.00494 -2.90556,-2.30671 -7.79755,-6.215 -8.91244,-7.09323 -0.97787,-0.7703 -2.55373,-1.95239 -2.72304,-3.00874 -0.22849,-1.02829 1.39009,-1.52341 2.24709,-1.58052 2.76109,-0.19043 6.53167,0.53992 9.88306,1.2064 1.68465,0.33502 1.98041,0.28566 1.98041,0.28566 2.3993,0.11425 4.74233,-1.54918 4.6471,-4.19614 -0.0191,-2.68497 -3.18038,-4.83805 -6.15145,-4.93206 -3.00563,-0.013 -10.12781,-0.013 -10.12781,-0.013 8.03602,1.65671 9.78493,2.4923 10.20411,3.45966 0.24825,0.5716 -0.41307,1.13952 -2.62699,1.02862 -2.41129,-0.12087 -7.35191,-0.70467 -7.35191,-0.70467 -4.70254,-0.72359 -7.57166,-1.40913 -9.00012,0.45703 -0.93307,1.21918 0.13332,2.70412 0.55223,3.57991 1.86617,3.25637 4.68624,5.49044 6.73391,7.06479 0.7705,0.59242 3.12289,1.90426 3.12289,1.90426 -7.31224,-1.99946 -13.54602,-0.87597 -17.24029,1.06638 -4.24653,2.51365 -3.52009,6.7553 3.21812,10.72102 3.97995,2.34231 6.36828,3.46738 12.88449,4.26748 3.80882,0.60732 4.58004,0.85581 4.55115,1.17285 -0.0408,0.44636 -4.71191,0.6155 -5.93974,0.70019 -3.1239,0.21543 -11.20307,-0.12409 -11.24336,-0.12409 z"
       id="path10-3" />
    <g
       transform="matrix(0.16158486,0,0,0.16158486,192.51946,90.899525)"
       fill="#f7b64c"
       id="g205"
       style="fill:#ff79c6;fill-opacity:1;fill-rule:nonzero;stroke:none;stroke-width:1">
      <g
         transform="translate(109.38,224.78947)"
         id="g181"
         style="fill:#ff79c6;fill-opacity:1">
        <path
           d="m 1.804,57.002632 c 65.36,-31.05 132.354,-22.878948 133.988,-22.878948 v 4.902632 c 0,0 -70.262,-8.171053 -135.622,24.513158 0,-1.634211 0,-3.268421 1.634,-6.536842 z"
           id="path177"
           style="fill:#ff79c6;fill-opacity:1" />
        <path
           d="m 160.302,22.68421 3.268,-3.268421 C 132.524,-6.7315789 70.432,1.4394737 67.164,3.0736842 v 4.9026316 c 0,0 63.726,-9.8052632 93.138,14.7078942 z"
           id="path179"
           style="fill:#ff79c6;fill-opacity:1" />
      </g>
      <path
         d="m 96.478,325.91579 c 49.02,-34.31842 117.648,-39.22105 117.648,-39.22105 v 4.90263 c 0,0 -70.262,4.90263 -117.648,40.85526 0,-1.63421 0,-3.26842 0,-6.53684 z"
         id="path183"
         style="fill:#ff79c6;fill-opacity:1" />
      <path
         d="m 243.538,265.45 c -1.634,3.26842 -8.17,17.97632 -31.046,29.41579 -22.876,11.43947 -24.51,34.31842 -24.51,35.95263 v 1.63421 h -1.634 c 0,0 -42.484,4.90263 -73.53,53.92895 -1.634,-1.63421 -3.268,-1.63421 -3.268,-3.26842 27.778,-44.12369 65.36,-52.29474 75.164,-53.92895 1.634,-6.53684 4.902,-26.14737 27.778,-37.58684 24.51,-11.43948 29.412,-27.78158 29.412,-27.78158 v -1.63421 l 27.778,-14.7079 63.726,-1.63421 24.51,14.7079 -3.268,4.90263 -24.51,-13.07368 -60.458,1.63421 z"
         id="path185"
         style="fill:#ff79c6;fill-opacity:1" />
      <polygon
         points="186.348,329.18421 204.322,338.98947 256.61,321.01316 357.918,260.54737 357.918,265.45 259.878,324.28158 204.322,343.89211 183.08,332.45263 "
         id="polygon187"
         style="fill:#ff79c6;fill-opacity:1" />
      <path
         d="m 140.596,425.60263 c 26.144,-45.75789 62.092,-86.61316 62.092,-86.61316 l 3.268,3.26843 c 0,0 -37.582,42.48947 -63.726,89.88157 0,-1.63421 0,-3.26842 -1.634,-6.53684 z"
         id="path189"
         style="fill:#ff79c6;fill-opacity:1" />
      <path
         d="m 184.714,477.89737 c 13.072,-68.63684 68.628,-153.61579 71.896,-156.88421 l 4.902,3.26842 c 0,1.63421 -60.458,89.88158 -71.896,158.51842 -1.634,-1.63421 -3.268,-3.26842 -4.902,-4.90263 z"
         id="path191"
         style="fill:#ff79c6;fill-opacity:1" />
      <path
         d="m 346.48,270.35263 c 0,1.63421 1.634,114.39474 -58.824,220.61842 -3.268,3.26842 -8.17,6.53685 -11.438,9.80527 65.36,-107.8579 65.36,-228.78948 65.36,-230.42369 z"
         id="path193"
         style="fill:#ff79c6;fill-opacity:1" />
      <path
         d="M 212.492,499.14211 C 284.388,417.43158 341.578,271.98684 341.578,270.35263 l 4.902,1.63421 c 0,1.63421 -57.19,147.07895 -130.72,230.42369 0,-1.63421 -1.634,-1.63421 -3.268,-3.26842 z"
         id="path195"
         style="fill:#ff79c6;fill-opacity:1" />
      <path
         d="m 205.956,103.66316 44.118,44.12368 107.844,73.53948 v 6.53684 L 246.806,152.68947 201.054,108.56579 v 0 0 c 0,0 -14.706,-62.100001 -176.472,-53.928948 -1.634,-1.63421 -1.634,-3.268421 -3.268,-4.902631 160.132,-11.439474 181.374,45.757894 184.642,53.928949 z"
         id="path197"
         style="fill:#ff79c6;fill-opacity:1" />
      <path
         d="m 52.36,97.126316 c 80.066,-11.439474 150.328,6.536844 151.962,6.536844 l -1.634,4.90263 c 0,0 -70.262,-16.342106 -147.06,-6.53684 -1.634,-1.63421 -3.268,-3.268424 -3.268,-4.902634 z"
         id="path199"
         style="fill:#ff79c6;fill-opacity:1" />
      <path
         d="m 76.87,154.32368 c 80.066,-13.07368 171.57,-6.53684 173.204,-6.53684 v 4.90263 c -1.634,0 -93.138,-6.53684 -171.57,6.53685 -1.634,-1.63422 -1.634,-3.26843 -1.634,-4.90264 z"
         id="path201"
         style="fill:#ff79c6;fill-opacity:1" />
      <path
         d="m 1.706,5.6105263 c 0,-1.6342105 0,-3.268421 -1.634,-4.90263156 C 135.694,-4.1947368 202.688,56.271053 202.688,57.905263 c 0,0 6.536,3.268421 4.902,4.902632 0,1.63421 -6.536,0 -6.536,0 -11.438,0 -21.242,3.268421 -31.046,11.439473 L 166.74,70.978947 C 176.544,64.442105 184.714,59.539474 194.518,59.539474 178.178,43.197368 112.818,2.3421053 1.706,5.6105263 Z"
         id="path203"
         style="fill:#ff79c6;fill-opacity:1" />
    </g>
    <g
       fill="#415a6b"
       id="g355"
       style="fill-rule:nonzero;stroke:none;stroke-width:1"
       transform="matrix(0.16158486,0,0,0.16158486,246.34984,106.90493)">
      <path
         d="m 39.484,117.37105 c 0,0 1.634,-3.26842 4.902,-8.17105 3.268,-4.90263 4.902,-11.439474 8.17,-19.610526 6.536,-14.707895 13.072,-31.05 17.974,-45.757895 3.268,-6.536842 4.902,-13.073684 6.536,-17.976316 0,0 0,-1.63421 0,-1.63421 0,0 0,-1.634211 0,-1.634211 0,-1.63421 0,-3.268421 0,-3.268421 0,-1.634211 1.634,-4.902631 1.634,-6.536842 1.634,-3.2684211 3.268,-4.9026316 4.902,-6.5368422 1.634,-1.6342105 1.634,-3.268421 1.634,-3.268421 4.902,-4.9026316 8.17,-1.6342105 4.902,3.268421 0,0 0,0 -1.634,1.6342106 -1.634,1.6342105 -3.268,3.2684206 -4.902,6.5368426 -1.634,1.63421 -1.634,3.26842 -3.268,4.902631 0,1.634211 0,1.634211 0,3.268421 0,0 0,1.634211 0,1.634211 0,0 0,1.63421 0,1.63421 -1.634,6.536842 -3.268,11.439474 -6.536,17.976316 -6.536,14.707895 -13.072,31.05 -19.608,44.123684 -3.268,8.171053 -6.536,14.707897 -9.804,19.610527 -1.634,8.17105 -3.268,9.80526 -4.902,9.80526 z"
         id="path351" />
      <path
         d="m 52.556,117.37105 c 0,0 -1.634,-3.26842 -4.902,-8.17105 -3.268,-4.90263 -4.902,-11.439474 -8.17,-19.610526 -6.536,-14.707895 -13.072,-31.05 -17.974,-45.757895 -3.268,-6.536842 -4.902,-13.073684 -6.536,-17.976316 0,0 0,-1.63421 0,-1.63421 0,0 0,-1.634211 0,-1.634211 0,-1.63421 0,-3.268421 0,-3.268421 0,-1.634211 -1.634,-4.902631 -1.634,-6.536842 C 11.706,9.5131579 10.072,7.8789474 8.438,6.2447368 6.804,4.6105263 6.804,2.9763158 6.804,2.9763158 1.902,-1.9263158 -1.366,1.3421053 1.902,6.2447368 c 0,0 0,0 1.634,1.6342106 1.634,1.6342105 3.268,3.2684206 4.902,6.5368426 1.634,1.63421 1.634,3.26842 3.268,4.902631 0,1.634211 0,1.634211 0,3.268421 0,0 0,1.634211 0,1.634211 0,0 0,1.63421 0,1.63421 1.634,6.536842 3.268,11.439474 6.536,17.976316 6.536,14.707895 13.072,31.05 19.608,44.123684 3.268,8.171053 6.536,14.707897 9.804,19.610527 1.634,8.17105 3.268,9.80526 4.902,9.80526 z"
         id="path353" />
    </g>
    <ellipse
       id="ellipse357"
       fill="#344a5e"
       cx="253.78598"
       cy="124.02187"
       rx="3.9604449"
       ry="4.2250185"
       style="fill-rule:nonzero;stroke:none;stroke-width:0.161585" />
    <path
       d="m 256.6903,132.73597 c 0.52806,-1.32032 1.84821,-5.8094 0.52806,-7.12972 -1.05612,-1.05625 -5.80865,-1.05625 -6.86477,0 -1.32015,1.05626 0,5.8094 0.52806,7.12972 z"
       fill="#415a6b"
       id="path359"
       style="fill:#6272a4;fill-opacity:1;fill-rule:nonzero;stroke:none;stroke-width:0.161585" />
    <g
       transform="matrix(0.16158486,0,0,0.16158486,250.28281,119.62336)"
       id="g377"
       style="fill:none;fill-rule:nonzero;stroke:none;stroke-width:1">
      <g
         transform="translate(0,2)"
         id="g369">
        <ellipse
           fill="#415a6b"
           cx="6.974"
           cy="8.8789473"
           rx="6.5359998"
           ry="8.1710529"
           id="ellipse365" />
        <ellipse
           fill="#ffffff"
           transform="rotate(19.098073,3.594234,5.418997)"
           cx="3.5942345"
           cy="5.4189968"
           rx="1.6340919"
           ry="3.2685146"
           id="ellipse367" />
      </g>
      <g
         transform="translate(29.68)"
         id="g375">
        <ellipse
           id="ellipse371"
           fill="#415a6b"
           cx="6.7059999"
           cy="10.878947"
           rx="6.5359998"
           ry="8.1710529" />
        <path
           d="m 8.34,9.2447368 c 0,1.6342102 1.634,1.6342102 3.268,1.6342102 1.634,0 1.634,-1.6342102 0,-3.2684207 0,-1.6342105 -1.634,-1.6342105 -3.268,-1.6342105 -1.634,0 -1.634,1.6342105 0,3.268421 z"
           id="path373"
           fill="#ffffff" />
      </g>
    </g>
    <g
       id="g3069"
       style="fill:#44475a;fill-opacity:1"
       transform="matrix(0.16158486,0,0,0.16158486,168.99881,47.535251)">
      <path
         d="m 554.1342,538.72105 c -3.268,39.22106 -11.438,88.24737 -11.438,114.39474 0,24.51316 1.634,148.71316 -17.974,153.61579 -19.608,-4.90263 -17.974,-127.46842 -17.974,-153.61579 0,-24.51316 -8.17,-75.17368 -11.438,-114.39474 -1.634,-26.14737 13.072,-29.41579 22.876,-31.05 4.902,0 9.804,0 14.706,0 8.17,0 24.51,4.90263 21.242,31.05 z"
         fill="#344a5e"
         id="path361"
         style="fill:#44475a;fill-opacity:1;fill-rule:nonzero;stroke:none;stroke-width:1" />
      <g
         fill="#415a6b"
         id="g387"
         style="fill:#44475a;fill-opacity:1;fill-rule:nonzero;stroke:none;stroke-width:1"
         transform="translate(478.7022,367.42105)">
        <path
           d="m 39.484,117.37105 c 0,0 1.634,-3.26842 4.902,-8.17105 3.268,-4.90263 4.902,-11.439474 8.17,-19.610526 6.536,-14.707895 13.072,-31.05 17.974,-45.757895 3.268,-6.536842 4.902,-13.073684 6.536,-17.976316 0,0 0,-1.63421 0,-1.63421 0,0 0,-1.634211 0,-1.634211 0,-1.63421 0,-3.268421 0,-3.268421 0,-1.634211 1.634,-4.902631 1.634,-6.536842 1.634,-3.2684211 3.268,-4.9026316 4.902,-6.5368422 1.634,-1.6342105 1.634,-3.268421 1.634,-3.268421 4.902,-4.9026316 8.17,-1.6342105 4.902,3.268421 0,0 0,0 -1.634,1.6342106 -1.634,1.6342105 -3.268,3.2684206 -4.902,6.5368426 -1.634,1.63421 -1.634,3.26842 -3.268,4.902631 0,1.634211 0,1.634211 0,3.268421 0,0 0,1.634211 0,1.634211 0,0 0,1.63421 0,1.63421 -1.634,6.536842 -3.268,11.439474 -6.536,17.976316 -6.536,14.707895 -13.072,31.05 -19.608,44.123684 -3.268,8.171053 -6.536,14.707897 -9.804,19.610527 -1.634,8.17105 -3.268,9.80526 -4.902,9.80526 z"
           id="path383"
           style="fill:#44475a;fill-opacity:1" />
        <path
           d="m 52.556,117.37105 c 0,0 -1.634,-3.26842 -4.902,-8.17105 -3.268,-4.90263 -4.902,-11.439474 -8.17,-19.610526 -6.536,-14.707895 -13.072,-31.05 -17.974,-45.757895 -3.268,-6.536842 -4.902,-13.073684 -6.536,-17.976316 0,0 0,-1.63421 0,-1.63421 0,0 0,-1.634211 0,-1.634211 0,-1.63421 0,-3.268421 0,-3.268421 0,-1.634211 -1.634,-4.902631 -1.634,-6.536842 C 11.706,9.5131579 10.072,7.8789474 8.438,6.2447368 6.804,4.6105263 6.804,2.9763158 6.804,2.9763158 1.902,-1.9263158 -1.366,1.3421053 1.902,6.2447368 c 0,0 0,0 1.634,1.6342106 1.634,1.6342105 3.268,3.2684206 4.902,6.5368426 1.634,1.63421 1.634,3.26842 3.268,4.902631 0,1.634211 0,1.634211 0,3.268421 0,0 0,1.634211 0,1.634211 0,0 0,1.63421 0,1.63421 1.634,6.536842 3.268,11.439474 6.536,17.976316 6.536,14.707895 13.072,31.05 19.608,44.123684 3.268,8.171053 6.536,14.707897 9.804,19.610527 1.634,8.17105 3.268,9.80526 4.902,9.80526 z"
           id="path385"
           style="fill:#44475a;fill-opacity:1" />
      </g>
      <ellipse
         id="ellipse389"
         fill="#344a5e"
         cx="524.72223"
         cy="473.35263"
         rx="24.51"
         ry="26.147367"
         style="fill:#44475a;fill-opacity:1;fill-rule:nonzero;stroke:none;stroke-width:1" />
    </g>
    <ellipse
       fill="#415a6b"
       cx="251.40971"
       cy="121.38123"
       rx="1.0561186"
       ry="1.3203185"
       id="ellipse391"
       style="fill:#6272a4;fill-opacity:1;fill-rule:nonzero;stroke:none;stroke-width:0.161585" />
    <ellipse
       fill="#ffffff"
       transform="rotate(19.098072)"
       cx="276.58737"
       cy="32.093021"
       rx="0.26404449"
       ry="0.52814251"
       id="ellipse393"
       style="fill-rule:nonzero;stroke:none;stroke-width:0.161585" />
    <ellipse
       id="ellipse397"
       fill="#415a6b"
       cx="256.16223"
       cy="121.38123"
       rx="1.0561186"
       ry="1.3203185"
       style="fill:#6272a4;fill-opacity:1;fill-rule:nonzero;stroke:none;stroke-width:0.161585" />
    <path
       d="m 256.42627,121.11717 c 0,0.26406 0.26403,0.26406 0.52806,0.26406 0.26403,0 0.26403,-0.26406 0,-0.52812 0,-0.26407 -0.26403,-0.26407 -0.52806,-0.26407 -0.26403,0 -0.26403,0.26407 0,0.52813 z"
       id="path399"
       fill="#ffffff"
       style="fill-rule:nonzero;stroke:none;stroke-width:0.161585" />
    <g
       id="g3004"
       style="fill:#6272a4;fill-opacity:1"
       transform="matrix(0.16158486,0,0,0.16158486,169.01624,45.497153)">
      <path
         d="m 501.8462,597.55263 c 0,1.63421 0,1.63421 0,0 8.17,-1.63421 14.706,-1.63421 22.876,-1.63421 8.17,0 16.34,1.63421 22.876,3.26842 0,0 0,0 0,-1.63421 -6.536,-4.90263 -14.706,-6.53684 -22.876,-6.53684 -8.17,0 -16.34,3.26842 -22.876,6.53684 z"
         id="path409"
         fill="#415a6b"
         style="fill:#6272a4;fill-opacity:1;fill-rule:nonzero;stroke:none;stroke-width:1" />
      <path
         d="m 503.4802,618.79737 c 0,0 0,1.63421 0,1.63421 6.536,-1.63421 13.072,-3.26842 21.242,-3.26842 6.536,0 14.706,1.63421 21.242,3.26842 0,0 0,-1.63421 0,-1.63421 -6.536,-3.26842 -13.072,-4.90263 -21.242,-4.90263 -8.17,-1.63421 -14.706,0 -21.242,4.90263 z"
         id="path411"
         fill="#415a6b"
         style="fill:#6272a4;fill-opacity:1;fill-rule:nonzero;stroke:none;stroke-width:1" />
      <path
         d="m 505.1142,638.40789 c 0,1.63421 0,1.63421 0,3.26843 6.536,-1.63422 13.072,-1.63422 17.974,-1.63422 6.536,0 13.072,0 17.974,1.63422 0,0 0,-1.63422 0,-3.26843 -4.902,-3.26842 -11.438,-4.90263 -19.608,-4.90263 -3.268,0 -9.804,1.63421 -16.34,4.90263 z"
         id="path413"
         fill="#415a6b"
         style="fill:#6272a4;fill-opacity:1;fill-rule:nonzero;stroke:none;stroke-width:1" />
      <path
         d="m 506.7482,659.65263 c 0,1.63421 0,1.63421 0,3.26842 6.536,-1.63421 11.438,-1.63421 17.974,-1.63421 6.536,0 13.072,0 17.974,1.63421 0,-1.63421 0,-1.63421 0,-3.26842 -4.902,-3.26842 -11.438,-4.90263 -17.974,-4.90263 -6.536,0 -13.072,1.63421 -17.974,4.90263 z"
         id="path415"
         fill="#415a6b"
         style="fill:#6272a4;fill-opacity:1;fill-rule:nonzero;stroke:none;stroke-width:1" />
      <path
         d="m 506.7482,679.26316 c 0,1.63421 0,1.63421 0,3.26842 6.536,-1.63421 11.438,-1.63421 17.974,-1.63421 6.536,0 11.438,0 17.974,1.63421 0,-1.63421 0,-1.63421 0,-3.26842 -4.902,-3.26842 -11.438,-4.90263 -17.974,-4.90263 -6.536,1.63421 -13.072,3.26842 -17.974,4.90263 z"
         id="path417"
         fill="#415a6b"
         style="fill:#6272a4;fill-opacity:1;fill-rule:nonzero;stroke:none;stroke-width:1" />
      <path
         d="m 506.7482,705.41053 c 0,0 0,0 0,0 4.902,-1.63421 11.438,-3.26842 17.974,-3.26842 6.536,0 11.438,1.63421 17.974,3.26842 0,0 0,0 0,-1.63421 -4.902,-4.90264 -11.438,-8.17106 -17.974,-8.17106 -6.536,1.63421 -13.072,4.90264 -17.974,9.80527 z"
         id="path419"
         fill="#415a6b"
         style="fill:#6272a4;fill-opacity:1;fill-rule:nonzero;stroke:none;stroke-width:1" />
      <path
         d="m 508.3822,723.38684 c 0,0 0,1.63421 0,1.63421 4.902,-1.63421 11.438,-3.26842 16.34,-3.26842 6.536,0 11.438,1.63421 16.34,3.26842 0,0 0,-1.63421 0,-1.63421 -4.902,-3.26842 -11.438,-6.53684 -16.34,-6.53684 -6.536,1.63421 -11.438,3.26842 -16.34,6.53684 z"
         id="path421"
         fill="#415a6b"
         style="fill:#6272a4;fill-opacity:1;fill-rule:nonzero;stroke:none;stroke-width:1" />
      <path
         d="m 508.3822,744.63158 c 0,0 0,1.63421 0,1.63421 4.902,-1.63421 9.804,-1.63421 16.34,-1.63421 4.902,0 9.804,0 16.34,1.63421 0,0 0,-1.63421 0,-1.63421 -4.902,-3.26842 -9.804,-4.90263 -16.34,-4.90263 -4.902,0 -11.438,1.63421 -16.34,4.90263 z"
         id="path423"
         fill="#415a6b"
         style="fill:#6272a4;fill-opacity:1;fill-rule:nonzero;stroke:none;stroke-width:1" />
      <path
         d="m 511.6502,764.24211 c 0,1.63421 0,1.63421 0,3.26842 4.902,-1.63421 8.17,-1.63421 13.072,-1.63421 4.902,0 9.804,0 13.072,1.63421 0,-1.63421 0,-1.63421 0,-3.26842 -3.268,-1.63422 -8.17,-3.26843 -13.072,-3.26843 -4.902,0 -9.804,1.63421 -13.072,3.26843 z"
         id="path425"
         fill="#415a6b"
         style="fill:#6272a4;fill-opacity:1;fill-rule:nonzero;stroke:none;stroke-width:1" />
      <path
         d="m 514.9182,785.48684 c 0,1.63421 0,1.63421 0,3.26842 3.268,-1.63421 6.536,-1.63421 9.804,-1.63421 3.268,0 6.536,0 9.804,1.63421 0,-1.63421 0,-1.63421 0,-3.26842 -3.268,-1.63421 -6.536,-3.26842 -9.804,-3.26842 -3.268,0 -6.536,0 -9.804,3.26842 z"
         id="path429"
         fill="#415a6b"
         style="fill:#6272a4;fill-opacity:1;fill-rule:nonzero;stroke:none;stroke-width:1" />
    </g>
    <text
       xml:space="preserve"
       id="text1044"
       style="font-style:normal;font-weight:normal;font-size:10.5833px;line-height:1.25;font-family:sans-serif;white-space:pre;shape-inside:url(#rect1046);fill:#f8f8f8;fill-opacity:1;stroke:none;"
       transform="translate(9.4447253,-23.29215)"><tspan
         x="202.48633"
         y="250.17454"><tspan
           style="font-style:normal;font-variant:normal;font-weight:normal;font-stretch:normal;font-family:'FiraCode Nerd Font';-inkscape-font-specification:'FiraCode Nerd Font';fill:#f8f8f8;fill-opacity:1">M-x butterfly</tspan></tspan></text>
  </g>
</svg>
