<?xml version="1.0" encoding="UTF-8" standalone="no"?>
<svg
   xmlns:dc="http://purl.org/dc/elements/1.1/"
   xmlns:cc="http://creativecommons.org/ns#"
   xmlns:rdf="http://www.w3.org/1999/02/22-rdf-syntax-ns#"
   xmlns:svg="http://www.w3.org/2000/svg"
   xmlns="http://www.w3.org/2000/svg"
   xmlns:xlink="http://www.w3.org/1999/xlink"
   xmlns:sodipodi="http://sodipodi.sourceforge.net/DTD/sodipodi-0.dtd"
   xmlns:inkscape="http://www.inkscape.org/namespaces/inkscape"
   width="1920"
   height="1080"
   viewBox="0 0 507.99999 285.75001"
   version="1.1"
   id="svg8"
   inkscape:version="1.0.2 (e86c870879, 2021-01-15)"
   sodipodi:docname="wallpaper-emacs.svg"
   inkscape:export-filename="/etc/nixos/users/profiles/gnome-session/wallpaper-emacs.png"
   inkscape:export-xdpi="192"
   inkscape:export-ydpi="192">
  <defs
     id="defs2">
    <rect
       x="202.48595"
       y="240.60639"
       width="85.303351"
       height="12.681021"
       id="rect1046" />
    <rect
       x="-5125.4512"
       y="1681.2927"
       width="1080.0458"
       height="32.934991"
       id="rect7956" />
    <rect
       x="-5125.4512"
       y="1681.2927"
       width="1625.9453"
       height="110.64851"
       id="rect12686" />
  </defs>
  <sodipodi:namedview
     id="base"
     pagecolor="#ffffff"
     bordercolor="#666666"
     borderopacity="1.0"
     inkscape:pageopacity="0.0"
     inkscape:pageshadow="2"
     inkscape:zoom="0.91733182"
     inkscape:cx="448.88096"
     inkscape:cy="156.49355"
     inkscape:document-units="mm"
     inkscape:current-layer="layer1"
     inkscape:document-rotation="0"
     showgrid="false"
     units="px"
     inkscape:window-width="3840"
     inkscape:window-height="2160"
     inkscape:window-x="0"
     inkscape:window-y="0"
     inkscape:window-maximized="0" />
  <metadata
     id="metadata5">
    <rdf:RDF>
      <cc:Work
         rdf:about="">
        <dc:format>image/svg+xml</dc:format>
        <dc:type
           rdf:resource="http://purl.org/dc/dcmitype/StillImage" />
        <dc:title />
      </cc:Work>
    </rdf:RDF>
  </metadata>
  <g
     inkscape:label="Layer 1"
     inkscape:groupmode="layer"
     id="layer1">
    <rect
       style="fill:#282a36;fill-opacity:1;stroke:#000000;stroke-width:0.373618;stop-color:#000000"
       id="rect7440"
       width="507.62637"
       height="285.3764"
       x="0.186809"
       y="0.186809"
       inkscape:export-xdpi="96"
       inkscape:export-ydpi="96" />
    <text
       xml:space="preserve"
       id="text1044"
       style="font-style:normal;font-weight:normal;font-size:10.5833px;line-height:1.25;font-family:sans-serif;white-space:pre;shape-inside:url(#rect1046);fill:#f8f8f8;fill-opacity:1;stroke:none;"
       transform="translate(9.6826046,3.7056095)"><tspan
         x="202.48633"
         y="250.17454"><tspan
           style="font-style:normal;font-variant:normal;font-weight:normal;font-stretch:normal;font-family:'FiraCode Nerd Font';-inkscape-font-specification:'FiraCode Nerd Font';fill:#f8f8f8;fill-opacity:1">M-x butterfly</tspan></tspan></text>
    <g
       id="g993"
       transform="translate(0.4999961)">
      <path
         d="m 200.93008,101.52076 c 26.93103,5.01721 47.26131,39.60955 49.37355,43.5705 v 24.0298 c -1.05612,2.9047 -5.54462,15.05163 -7.92089,19.54071 -2.90433,5.01721 -8.97701,10.82661 -16.8979,6.07346 -5.01656,-3.16876 -10.56119,-8.45003 -13.99357,-12.14693 -3.16836,-3.43282 -5.54463,-7.65784 -6.33671,-12.14693 -2.6403,-15.57975 14.2576,-19.80477 14.2576,-19.80477 0,0 -12.67343,2.64063 -14.78566,-5.01721 l -13.20149,-31.68764 c 0,0 0,-0.26406 -0.26403,-0.26406 -2.64029,-6.60159 2.90433,-13.46725 9.7691,-12.14693 z"
         id="path175"
         fill="#ffd15c"
         style="fill:#bd93f9;fill-opacity:1;fill-rule:nonzero;stroke:none;stroke-width:0.161585" />
      <path
         style="fill:#f8f8f2;fill-opacity:1;stroke-width:1.01745"
         d="m 221.07733,152.5795 c 0,0 2.25776,-0.85126 4.54218,-2.68425 0.92512,-0.7423 4.41242,-3.59828 6.79436,-6.07137 0,0 2.91561,-2.99782 4.28866,-4.88201 1.43617,-1.97208 2.07498,-3.25883 1.97849,-4.41397 -0.13564,-0.1594 -0.3808,-0.88192 -1.50468,-0.66442 -2.87333,0.55603 -5.36345,2.46328 -10.58871,5.79095 -5.84464,3.61518 -8.45457,3.99996 -9.98089,3.90537 -1.4922,-0.13374 -2.37487,-2.69464 0.51503,-7.37405 1.41916,-2.412 7.83485,-9.514 7.83485,-9.514 -3.67893,0.47816 -9.89065,1.26612 -11.29735,1.45439 -1.23383,0.16512 -3.17964,0.47251 -4.05554,-0.14178 -0.89698,-0.55228 -0.12487,-2.05853 0.43107,-2.71323 1.78652,-2.11382 4.93687,-4.31064 7.74941,-6.25116 1.41379,-0.97544 1.58437,-1.22204 1.58437,-1.22204 1.75315,-1.64201 2.19155,-4.48183 0.22593,-6.25717 -1.93986,-1.85644 -5.68667,-1.08778 -7.82355,0.97859 -2.10281,2.14759 -7.06357,7.258 -7.06357,7.258 6.78601,-4.61219 8.60373,-5.28508 9.58982,-4.91207 0.58305,0.22001 0.52993,1.0901 -1.09169,2.60142 -1.76624,1.64599 -5.62639,4.78443 -5.62639,4.78443 -3.79463,2.87023 -6.28494,4.45143 -5.94086,6.77623 0.2249,1.5187 2.03316,1.78782 2.95335,2.09724 3.63639,0.9291 7.20366,0.46168 9.75956,0.089 0.96175,-0.14022 3.54153,-0.91442 3.54153,-0.91442 -6.52782,3.85412 -10.06364,9.10961 -11.24308,13.11327 -1.15418,4.79785 2.39534,7.23101 9.9342,5.15832 4.45281,-1.22428 6.92361,-2.15436 12.0364,-6.27268 3.0887,-2.30994 3.80417,-2.69024 4.01154,-2.44869 0.29186,0.34018 -2.84031,3.80967 -3.63475,4.74967 -2.02129,2.39156 -7.89223,7.95216 -7.9203,7.98107 z"
         id="path10-3" />
      <path
         style="fill:#f8f8f2;fill-opacity:1;stroke-width:1.01745"
         d="m 210.24056,178.95772 c 0,0 1.55681,1.8435 4.04782,3.38405 1.00878,0.62388 4.86594,2.9563 7.99284,4.37486 0,0 3.7998,1.7462 6.03451,2.41067 2.33863,0.69459 3.76488,0.86667 4.82137,0.38972 0.10491,-0.18111 0.70397,-0.65362 0.1234,-1.64021 -1.48426,-2.52234 -4.114,-4.23195 -8.99651,-8.0448 -5.36048,-4.30054 -6.59531,-6.63184 -7.01622,-8.10202 -0.3726,-1.45111 1.74611,-3.13882 7.12224,-1.9788 2.74758,0.53154 11.58526,4.2051 11.58526,4.2051 -1.68008,-3.30765 -4.49854,-8.89895 -5.14607,-10.16186 -0.56794,-1.10772 -1.5079,-2.83895 -1.22163,-3.86977 0.22079,-1.02998 1.89846,-0.8056 2.70131,-0.5004 2.5893,0.97743 5.71261,3.21254 8.48145,5.21493 1.39181,1.00654 1.68124,1.08491 1.68124,1.08491 2.13346,1.10365 4.95653,0.56785 5.97294,-1.87804 1.10147,-2.44872 -0.87509,-5.72326 -3.53675,-7.04677 -2.72683,-1.26425 -9.20121,-4.23206 -9.20121,-4.23206 6.61474,4.85462 7.85639,6.34298 7.83435,7.39703 -0.0125,0.62305 -0.85034,0.86375 -2.81668,-0.1596 -2.14159,-1.11466 -6.38957,-3.7041 -6.38957,-3.7041 -3.97331,-2.61733 -6.2958,-4.43607 -8.37197,-3.33489 -1.35624,0.71949 -1.00561,2.51372 -0.98974,3.4844 0.3395,3.73782 1.97214,6.94382 3.17752,9.22824 0.45355,0.8596 2.04534,3.03237 2.04534,3.03237 -5.81399,-4.8646 -11.94893,-6.4409 -16.11656,-6.21461 -4.90772,0.51549 -6.01485,4.67405 -1.54202,11.08687 2.64192,3.7877 4.3442,5.80565 9.93433,9.24827 3.20931,2.13922 3.80684,2.68647 3.64847,2.96264 -0.22309,0.38875 -4.53981,-1.40393 -5.69125,-1.83859 -2.92954,-1.10588 -10.13239,-4.7811 -10.16901,-4.7979 z"
         id="path10-3-1" />
    </g>
    <g
       id="g998"
       transform="translate(-0.50046)">
      <path
         d="m 307.07001,101.52076 c -26.93103,5.01721 -47.26131,39.60955 -49.37355,43.5705 v 24.0298 c 1.05612,2.9047 5.54462,15.05163 7.92089,19.54071 2.90432,5.01721 8.97701,10.82661 16.8979,6.07346 5.01656,-3.16876 10.56118,-8.45003 13.99357,-12.14693 3.16835,-3.43282 5.54462,-7.65784 6.33671,-12.14693 2.6403,-15.57975 -14.2576,-19.80477 -14.2576,-19.80477 0,0 12.67342,2.64063 14.78566,-5.01721 l 13.20148,-31.68764 c 0,0 0,-0.26406 0.26403,-0.26406 2.6403,-6.60159 -2.90432,-13.46725 -9.76909,-12.14693 z"
         id="路径"
         fill="#ffd15c"
         style="fill:#bd93f9;fill-opacity:1;fill-rule:nonzero;stroke:none;stroke-width:0.161585" />
      <path
         style="fill:#f8f8f2;fill-opacity:1;stroke-width:1.01745"
         d="m 287.6313,153.42882 c 0,0 -2.32045,-0.66153 -4.74869,-2.29923 -0.98337,-0.66323 -4.69501,-3.22088 -7.27342,-5.48841 0,0 -3.15364,-2.7463 -4.67788,-4.51042 -1.5944,-1.8465 -2.3375,-3.076 -2.3369,-4.23514 0.12199,-0.17009 0.30651,-0.91039 1.44454,-0.78664 2.90949,0.31637 5.54885,2.01106 11.03154,4.895 6.12372,3.1192 8.75652,3.28672 10.26978,3.06616 1.47604,-0.25674 2.14379,-2.88189 -1.12337,-7.30615 -1.61385,-2.2863 -8.59516,-8.83314 -8.59516,-8.83314 3.70588,0.17211 9.96148,0.44345 11.37896,0.51473 1.24326,0.0622 3.20782,0.20777 4.02988,-0.47685 0.84821,-0.6246 -0.0459,-2.0618 -0.65408,-2.66827 -1.95529,-1.95874 -5.2766,-3.88737 -8.24004,-5.58853 -1.48965,-0.85512 -1.68005,-1.08678 -1.68005,-1.08678 -1.88299,-1.49131 -2.55486,-4.28513 -0.74288,-6.217 1.77963,-2.01058 5.57718,-1.55457 7.87771,0.32788 2.27329,1.96624 7.63987,6.64869 7.63987,6.64869 -7.14436,-4.03492 -9.01151,-4.55512 -9.96336,-4.1018 -0.56285,0.26749 -0.43792,1.13021 1.30319,2.50218 1.89637,1.49421 6.00296,4.30249 6.00296,4.30249 4.01909,2.54644 6.63168,3.91617 6.48115,6.26146 -0.0985,1.5321 -1.87827,1.94993 -2.76972,2.33441 -3.54703,1.22679 -7.14075,1.05611 -9.71873,0.89617 -0.97002,-0.0607 -3.60504,-0.61827 -3.60504,-0.61827 6.82432,3.30079 10.78286,8.24573 12.2895,12.13807 1.54719,4.6859 -1.78883,7.4044 -9.47333,5.96257 -4.53885,-0.85166 -7.07814,-1.57413 -12.51412,-5.25529 -3.26926,-2.04648 -4.01374,-2.36627 -4.2004,-2.10839 -0.26271,0.36316 3.14579,3.56162 4.01526,4.43265 2.21225,2.21613 8.52312,7.27191 8.55349,7.2984 z"
         id="path10-3-7" />
      <path
         style="fill:#f8f8f2;fill-opacity:1;stroke-width:1.01745"
         d="m 299.23082,177.28643 c 0,0 -1.43704,1.93831 -3.82558,3.63339 -0.9673,0.68645 -4.66914,3.25826 -7.70002,4.87185 0,0 -3.68168,1.98313 -5.86987,2.78767 -2.29,0.84116 -3.70253,1.10316 -4.78705,0.69399 -0.11617,-0.17411 -0.74392,-0.60775 -0.22694,-1.6291 1.32167,-2.61121 3.83796,-4.48377 8.46945,-8.59793 5.07762,-4.63111 6.16245,-7.03586 6.48948,-8.52973 0.28005,-1.4718 -1.94121,-3.02206 -7.23316,-1.52419 -2.70843,0.70433 -11.29597,4.92973 -11.29597,4.92973 1.4674,-3.40733 3.92644,-9.16574 4.49282,-10.46711 0.49646,-1.14153 1.3252,-2.92867 0.9743,-3.93929 -0.28551,-1.01394 -1.94563,-0.68384 -2.72756,-0.32848 -2.52225,1.13932 -5.49786,3.56758 -8.13445,5.74113 -1.32535,1.0926 -1.60924,1.18912 -1.60924,1.18912 -2.05935,1.23643 -4.91067,0.88034 -6.07979,-1.49632 -1.2542,-2.37413 0.51118,-5.76718 3.08374,-7.25647 2.64137,-1.43426 8.915,-4.80578 8.915,-4.80578 -6.29434,5.26344 -7.43932,6.82737 -7.35064,7.87791 0.0519,0.62102 0.9033,0.80822 2.80095,-0.33751 2.06678,-1.24792 6.14239,-4.10098 6.14239,-4.10098 3.79973,-2.86348 6.00248,-4.82553 8.14417,-3.85794 1.39903,0.63225 1.16265,2.44506 1.20822,3.41482 -0.10229,3.7518 -1.52882,7.05467 -2.58724,9.41079 -0.39874,0.88636 -1.84937,3.1557 -1.84937,3.1557 5.49451,-5.22273 11.51744,-7.18407 15.69102,-7.22193 4.93051,0.20392 6.29855,4.28408 2.24045,10.96707 -2.39696,3.94729 -3.96816,6.06891 -9.32923,9.85833 -3.06754,2.33802 -3.62924,2.92198 -3.45371,3.18756 0.24725,0.37387 4.4419,-1.68838 5.56352,-2.19499 2.8537,-1.28905 9.80956,-5.41265 9.84505,-5.43173 z"
         id="path10-3-7-2" />
    </g>
    <g
       id="g988">
      <g
         fill="#415a6b"
         id="g355"
         style="fill-rule:nonzero;stroke:none;stroke-width:1"
         transform="matrix(0.16158486,0,0,0.16158486,246.56391,129.29464)">
        <path
           d="m 39.484,117.37105 c 0,0 1.634,-3.26842 4.902,-8.17105 3.268,-4.90263 4.902,-11.439474 8.17,-19.610526 6.536,-14.707895 13.072,-31.05 17.974,-45.757895 3.268,-6.536842 4.902,-13.073684 6.536,-17.976316 0,0 0,-1.63421 0,-1.63421 0,0 0,-1.634211 0,-1.634211 0,-1.63421 0,-3.268421 0,-3.268421 0,-1.634211 1.634,-4.902631 1.634,-6.536842 1.634,-3.2684211 3.268,-4.9026316 4.902,-6.5368422 1.634,-1.6342105 1.634,-3.268421 1.634,-3.268421 4.902,-4.9026316 8.17,-1.6342105 4.902,3.268421 0,0 0,0 -1.634,1.6342106 -1.634,1.6342105 -3.268,3.2684206 -4.902,6.5368426 -1.634,1.63421 -1.634,3.26842 -3.268,4.902631 0,1.634211 0,1.634211 0,3.268421 0,0 0,1.634211 0,1.634211 0,0 0,1.63421 0,1.63421 -1.634,6.536842 -3.268,11.439474 -6.536,17.976316 -6.536,14.707895 -13.072,31.05 -19.608,44.123684 -3.268,8.171053 -6.536,14.707897 -9.804,19.610527 -1.634,8.17105 -3.268,9.80526 -4.902,9.80526 z"
           id="path351" />
        <path
           d="m 52.556,117.37105 c 0,0 -1.634,-3.26842 -4.902,-8.17105 -3.268,-4.90263 -4.902,-11.439474 -8.17,-19.610526 -6.536,-14.707895 -13.072,-31.05 -17.974,-45.757895 -3.268,-6.536842 -4.902,-13.073684 -6.536,-17.976316 0,0 0,-1.63421 0,-1.63421 0,0 0,-1.634211 0,-1.634211 0,-1.63421 0,-3.268421 0,-3.268421 0,-1.634211 -1.634,-4.902631 -1.634,-6.536842 C 11.706,9.5131579 10.072,7.8789474 8.438,6.2447368 6.804,4.6105263 6.804,2.9763158 6.804,2.9763158 1.902,-1.9263158 -1.366,1.3421053 1.902,6.2447368 c 0,0 0,0 1.634,1.6342106 1.634,1.6342105 3.268,3.2684206 4.902,6.5368426 1.634,1.63421 1.634,3.26842 3.268,4.902631 0,1.634211 0,1.634211 0,3.268421 0,0 0,1.634211 0,1.634211 0,0 0,1.63421 0,1.63421 1.634,6.536842 3.268,11.439474 6.536,17.976316 6.536,14.707895 13.072,31.05 19.608,44.123684 3.268,8.171053 6.536,14.707897 9.804,19.610527 1.634,8.17105 3.268,9.80526 4.902,9.80526 z"
           id="path353" />
      </g>
      <ellipse
         id="ellipse357"
         fill="#344a5e"
         cx="254.00005"
         cy="146.41159"
         rx="3.9604449"
         ry="4.2250185"
         style="fill-rule:nonzero;stroke:none;stroke-width:0.161585" />
      <path
         d="m 256.90437,155.12568 c 0.52806,-1.32032 1.84821,-5.80939 0.52806,-7.12972 -1.05612,-1.05625 -5.80865,-1.05625 -6.86477,0 -1.32015,1.05626 0,5.8094 0.52806,7.12972 z"
         fill="#415a6b"
         id="path359"
         style="fill:#6272a4;fill-opacity:1;fill-rule:nonzero;stroke:none;stroke-width:0.161585" />
      <g
         transform="matrix(0.16158486,0,0,0.16158486,250.49688,142.01308)"
         id="g377"
         style="fill:none;fill-rule:nonzero;stroke:none;stroke-width:1">
        <g
           transform="translate(0,2)"
           id="g369">
          <ellipse
             fill="#415a6b"
             cx="6.974"
             cy="8.8789473"
             rx="6.5359998"
             ry="8.1710529"
             id="ellipse365" />
          <ellipse
             fill="#ffffff"
             transform="rotate(19.098073,3.594234,5.418997)"
             cx="3.5942345"
             cy="5.4189968"
             rx="1.6340919"
             ry="3.2685146"
             id="ellipse367" />
        </g>
        <g
           transform="translate(29.68)"
           id="g375">
          <ellipse
             id="ellipse371"
             fill="#415a6b"
             cx="6.7059999"
             cy="10.878947"
             rx="6.5359998"
             ry="8.1710529" />
          <path
             d="m 8.34,9.2447368 c 0,1.6342102 1.634,1.6342102 3.268,1.6342102 1.634,0 1.634,-1.6342102 0,-3.2684207 0,-1.6342105 -1.634,-1.6342105 -3.268,-1.6342105 -1.634,0 -1.634,1.6342105 0,3.268421 z"
             id="path373"
             fill="#ffffff" />
        </g>
      </g>
      <g
         id="g3069"
         style="fill:#44475a;fill-opacity:1"
         transform="matrix(0.16158486,0,0,0.16158486,169.21288,69.924966)">
        <path
           d="m 554.1342,538.72105 c -3.268,39.22106 -11.438,88.24737 -11.438,114.39474 0,24.51316 1.634,148.71316 -17.974,153.61579 -19.608,-4.90263 -17.974,-127.46842 -17.974,-153.61579 0,-24.51316 -8.17,-75.17368 -11.438,-114.39474 -1.634,-26.14737 13.072,-29.41579 22.876,-31.05 4.902,0 9.804,0 14.706,0 8.17,0 24.51,4.90263 21.242,31.05 z"
           fill="#344a5e"
           id="path361"
           style="fill:#44475a;fill-opacity:1;fill-rule:nonzero;stroke:none;stroke-width:1" />
        <g
           fill="#415a6b"
           id="g387"
           style="fill:#44475a;fill-opacity:1;fill-rule:nonzero;stroke:none;stroke-width:1"
           transform="translate(478.7022,367.42105)">
          <path
             d="m 39.484,117.37105 c 0,0 1.634,-3.26842 4.902,-8.17105 3.268,-4.90263 4.902,-11.439474 8.17,-19.610526 6.536,-14.707895 13.072,-31.05 17.974,-45.757895 3.268,-6.536842 4.902,-13.073684 6.536,-17.976316 0,0 0,-1.63421 0,-1.63421 0,0 0,-1.634211 0,-1.634211 0,-1.63421 0,-3.268421 0,-3.268421 0,-1.634211 1.634,-4.902631 1.634,-6.536842 1.634,-3.2684211 3.268,-4.9026316 4.902,-6.5368422 1.634,-1.6342105 1.634,-3.268421 1.634,-3.268421 4.902,-4.9026316 8.17,-1.6342105 4.902,3.268421 0,0 0,0 -1.634,1.6342106 -1.634,1.6342105 -3.268,3.2684206 -4.902,6.5368426 -1.634,1.63421 -1.634,3.26842 -3.268,4.902631 0,1.634211 0,1.634211 0,3.268421 0,0 0,1.634211 0,1.634211 0,0 0,1.63421 0,1.63421 -1.634,6.536842 -3.268,11.439474 -6.536,17.976316 -6.536,14.707895 -13.072,31.05 -19.608,44.123684 -3.268,8.171053 -6.536,14.707897 -9.804,19.610527 -1.634,8.17105 -3.268,9.80526 -4.902,9.80526 z"
             id="path383"
             style="fill:#44475a;fill-opacity:1" />
          <path
             d="m 52.556,117.37105 c 0,0 -1.634,-3.26842 -4.902,-8.17105 -3.268,-4.90263 -4.902,-11.439474 -8.17,-19.610526 -6.536,-14.707895 -13.072,-31.05 -17.974,-45.757895 -3.268,-6.536842 -4.902,-13.073684 -6.536,-17.976316 0,0 0,-1.63421 0,-1.63421 0,0 0,-1.634211 0,-1.634211 0,-1.63421 0,-3.268421 0,-3.268421 0,-1.634211 -1.634,-4.902631 -1.634,-6.536842 C 11.706,9.5131579 10.072,7.8789474 8.438,6.2447368 6.804,4.6105263 6.804,2.9763158 6.804,2.9763158 1.902,-1.9263158 -1.366,1.3421053 1.902,6.2447368 c 0,0 0,0 1.634,1.6342106 1.634,1.6342105 3.268,3.2684206 4.902,6.5368426 1.634,1.63421 1.634,3.26842 3.268,4.902631 0,1.634211 0,1.634211 0,3.268421 0,0 0,1.634211 0,1.634211 0,0 0,1.63421 0,1.63421 1.634,6.536842 3.268,11.439474 6.536,17.976316 6.536,14.707895 13.072,31.05 19.608,44.123684 3.268,8.171053 6.536,14.707897 9.804,19.610527 1.634,8.17105 3.268,9.80526 4.902,9.80526 z"
             id="path385"
             style="fill:#44475a;fill-opacity:1" />
        </g>
        <ellipse
           id="ellipse389"
           fill="#344a5e"
           cx="524.72223"
           cy="473.35263"
           rx="24.51"
           ry="26.147367"
           style="fill:#44475a;fill-opacity:1;fill-rule:nonzero;stroke:none;stroke-width:1" />
      </g>
      <g
         id="g1338"
         transform="translate(0.2140661)">
        <ellipse
           fill="#415a6b"
           cx="251.40971"
           cy="143.77095"
           rx="1.0561186"
           ry="1.3203185"
           id="ellipse391"
           style="fill:#6272a4;fill-opacity:1;fill-rule:nonzero;stroke:none;stroke-width:0.161585" />
        <ellipse
           fill="#ffffff"
           transform="rotate(19.098072)"
           cx="283.91296"
           cy="53.250404"
           rx="0.26404449"
           ry="0.52814251"
           id="ellipse393"
           style="fill-rule:nonzero;stroke:none;stroke-width:0.161585" />
      </g>
      <ellipse
         fill="#415a6b"
         cx="256.37436"
         cy="143.76743"
         rx="1.0561186"
         ry="1.3203185"
         id="ellipse391-3"
         style="fill:#6272a4;fill-opacity:1;fill-rule:nonzero;stroke:none;stroke-width:0.161585" />
      <ellipse
         fill="#ffffff"
         transform="rotate(31.485856)"
         cx="292.97534"
         cy="-11.584827"
         rx="0.26404449"
         ry="0.52814251"
         id="ellipse393-1"
         style="fill-rule:nonzero;stroke:none;stroke-width:0.161585" />
      <g
         id="g1306"
         transform="translate(0.2140661)">
        <ellipse
           style="fill:#6272a4;fill-opacity:1;fill-rule:evenodd;stroke-width:0.555196"
           id="path1288"
           cx="253.77271"
           cy="194.95145"
           rx="2.109103"
           ry="0.25639483" />
        <ellipse
           style="fill:#6272a4;fill-opacity:1;fill-rule:evenodd;stroke-width:0.638639"
           id="path1290"
           cx="253.78712"
           cy="189.97374"
           rx="2.5867727"
           ry="0.32977542" />
        <ellipse
           style="fill:#6272a4;fill-opacity:1;fill-rule:evenodd;stroke-width:0.682859"
           id="path1292"
           cx="253.77905"
           cy="185.76993"
           rx="2.8060875"
           ry="0.4091827" />
        <ellipse
           style="fill:#6272a4;fill-opacity:1;fill-rule:evenodd;stroke-width:0.632997"
           id="path1294"
           cx="253.7921"
           cy="182.30086"
           rx="2.8944354"
           ry="0.31604651" />
        <ellipse
           style="fill:#6272a4;fill-opacity:1;fill-rule:evenodd;stroke-width:0.56402"
           id="path1296"
           cx="253.79503"
           cy="178.64336"
           rx="2.8985128"
           ry="0.30842829" />
        <ellipse
           style="fill:#6272a4;fill-opacity:1;fill-rule:evenodd;stroke-width:0.670173"
           id="path1298"
           cx="253.78168"
           cy="174.74091"
           rx="2.9075806"
           ry="0.3652629" />
      </g>
    </g>
    <g
       id="g1434"
       style="fill:#f8f8f8;fill-opacity:1"
       transform="matrix(0.36051569,0,0,0.36050872,138.12189,67.327434)">
      <g
         id="g885"
         transform="translate(67.411464,-244.31912)"
         style="fill:#f8f8f8;fill-opacity:1">
        <path
           id="f-3"
           d="m 248.57739,164.57907 30.10073,0.0473 -3.41094,6.03494 -8.07433,-0.0348 3.99924,7.0147 -1.72389,2.98172 -3.51325,-0.001 -5.6871,-9.98772 -8.21361,-0.0291 z"
           style="isolation:auto;mix-blend-mode:normal;solid-color:#000000;solid-opacity:1;fill:#f8f8f8;fill-opacity:1"
           color="#000000"
           clip-rule="nonzero"
           display="inline"
           overflow="visible"
           visibility="visible"
           opacity="1"
           color-interpolation="sRGB"
           color-interpolation-filters="linearRGB"
           fill="url(#e)"
           fill-opacity="1"
           fill-rule="evenodd"
           stroke="none"
           stroke-width="0.370024"
           stroke-linecap="butt"
           stroke-linejoin="round"
           stroke-miterlimit="4"
           stroke-dasharray="none"
           stroke-dashoffset="0"
           stroke-opacity="1"
           color-rendering="auto"
           image-rendering="auto"
           shape-rendering="auto"
           text-rendering="auto" />
        <use
           xlink:href="#f-3"
           transform="matrix(-0.5,0.86865029,-0.86340846,-0.5,513.78178,10.016897)"
           width="100%"
           height="100%"
           id="use28"
           x="0"
           y="0"
           style="fill:#f8f8f8;fill-opacity:1" />
        <use
           xlink:href="#f-3"
           transform="matrix(-0.5,-0.86865029,0.86340846,-0.5,248.25531,451.3504)"
           width="100%"
           height="100%"
           id="use30"
           x="0"
           y="0"
           style="fill:#f8f8f8;fill-opacity:1" />
      </g>
      <g
         id="g890"
         style="fill:#f8f8f8;fill-opacity:1"
         transform="translate(67.414357,-244.34664)">
        <path
           id="f"
           d="m 241.95333,154.43172 15.06592,26.09786 -6.92371,0.065 -4.02228,-7.01162 -4.05089,6.97414 -3.44022,-0.001 -1.76184,-3.04408 5.7713,-9.92378 -4.097,-7.12949 z"
           style="isolation:auto;mix-blend-mode:normal;solid-color:#000000;solid-opacity:1;fill:#f8f8f8;fill-opacity:1"
           color="#000000"
           clip-rule="nonzero"
           display="inline"
           overflow="visible"
           visibility="visible"
           opacity="1"
           color-interpolation="sRGB"
           color-interpolation-filters="linearRGB"
           fill="url(#e)"
           fill-opacity="1"
           fill-rule="evenodd"
           stroke="none"
           stroke-width="0.369876"
           stroke-linecap="butt"
           stroke-linejoin="round"
           stroke-miterlimit="4"
           stroke-dasharray="none"
           stroke-dashoffset="0"
           stroke-opacity="1"
           color-rendering="auto"
           image-rendering="auto"
           shape-rendering="auto"
           text-rendering="auto" />
        <use
           xlink:href="#f"
           transform="rotate(120,254.01018,153.72945)"
           width="100%"
           height="100%"
           id="use81"
           x="0"
           y="0"
           style="fill:#f8f8f8;fill-opacity:1" />
        <use
           xlink:href="#f"
           transform="rotate(-120,254.00377,153.75583)"
           width="100%"
           height="100%"
           id="use83"
           x="0"
           y="0"
           style="fill:#f8f8f8;fill-opacity:1" />
      </g>
    </g>
  </g>
</svg>
